<svg xmlns="http://www.w3.org/2000/svg" xmlns:xlink="http://www.w3.org/1999/xlink" width="800" zoomAndPan="magnify" viewBox="0 0 600 427.499982" height="570" preserveAspectRatio="xMidYMid meet" version="1.0"><defs><g/></defs><g fill="#ff00ff" fill-opacity="1"><g transform="translate(-1.652828, 222.178806)"><g><path d="M 90.203125 0 L 19.46875 0 C 16.632812 0 14.582031 -0.632812 13.3125 -1.90625 C 12.050781 -3.175781 11.421875 -5.226562 11.421875 -8.0625 L 11.421875 -34.25 C 11.421875 -37.082031 12.050781 -39.128906 13.3125 -40.390625 C 14.582031 -41.660156 16.632812 -42.296875 19.46875 -42.296875 L 79.6875 -42.296875 C 81.625 -42.296875 83.078125 -42.929688 84.046875 -44.203125 C 85.015625 -45.472656 85.5 -47.003906 85.5 -48.796875 C 85.5 -51.328125 85.015625 -53.191406 84.046875 -54.390625 C 83.078125 -55.585938 81.625 -56.257812 79.6875 -56.40625 L 46.109375 -61.109375 C 35.660156 -62.597656 27.265625 -66.023438 20.921875 -71.390625 C 14.585938 -76.765625 11.421875 -85.722656 11.421875 -98.265625 L 11.421875 -121.765625 C 11.421875 -134.441406 15.519531 -144.175781 23.71875 -150.96875 C 31.925781 -157.757812 43.269531 -161.15625 57.75 -161.15625 L 120.421875 -161.15625 C 123.253906 -161.15625 125.304688 -160.519531 126.578125 -159.25 C 127.847656 -157.976562 128.484375 -155.925781 128.484375 -153.09375 L 128.484375 -126.46875 C 128.484375 -123.625 127.847656 -121.566406 126.578125 -120.296875 C 125.304688 -119.035156 123.253906 -118.40625 120.421875 -118.40625 L 68.265625 -118.40625 C 66.328125 -118.40625 64.832031 -117.769531 63.78125 -116.5 C 62.738281 -115.226562 62.21875 -113.625 62.21875 -111.6875 C 62.21875 -109.75 62.738281 -108.109375 63.78125 -106.765625 C 64.832031 -105.421875 66.328125 -104.675781 68.265625 -104.53125 L 101.625 -100.046875 C 112.0625 -98.554688 120.488281 -95.125 126.90625 -89.75 C 133.320312 -84.382812 136.53125 -75.429688 136.53125 -62.890625 L 136.53125 -39.390625 C 136.53125 -26.710938 132.390625 -16.976562 124.109375 -10.1875 C 115.828125 -3.394531 104.523438 0 90.203125 0 Z M 90.203125 0 "/></g></g></g><g fill="#ff00ff" fill-opacity="1"><g transform="translate(143.838049, 222.178806)"><g><path d="M 91.546875 0 L 55.28125 0 C 52.445312 0 50.394531 -0.632812 49.125 -1.90625 C 47.863281 -3.175781 47.234375 -5.226562 47.234375 -8.0625 L 47.234375 -117.953125 L 14.328125 -117.953125 C 11.492188 -117.953125 9.441406 -118.585938 8.171875 -119.859375 C 6.898438 -121.128906 6.265625 -123.179688 6.265625 -126.015625 L 6.265625 -153.09375 C 6.265625 -155.925781 6.898438 -157.976562 8.171875 -159.25 C 9.441406 -160.519531 11.492188 -161.15625 14.328125 -161.15625 L 132.5 -161.15625 C 135.34375 -161.15625 137.394531 -160.519531 138.65625 -159.25 C 139.925781 -157.976562 140.5625 -155.925781 140.5625 -153.09375 L 140.5625 -126.015625 C 140.5625 -123.179688 139.925781 -121.128906 138.65625 -119.859375 C 137.394531 -118.585938 135.34375 -117.953125 132.5 -117.953125 L 99.609375 -117.953125 L 99.609375 -8.0625 C 99.609375 -5.226562 98.972656 -3.175781 97.703125 -1.90625 C 96.429688 -0.632812 94.378906 0 91.546875 0 Z M 91.546875 0 "/></g></g></g><g fill="#ff00ff" fill-opacity="1"><g transform="translate(290.671947, 222.178806)"><g><path d="M 127.359375 0 L 23.5 0 C 20.664062 0 18.613281 -0.632812 17.34375 -1.90625 C 16.070312 -3.175781 15.4375 -5.226562 15.4375 -8.0625 L 15.4375 -153.09375 C 15.4375 -155.925781 16.070312 -157.976562 17.34375 -159.25 C 18.613281 -160.519531 20.664062 -161.15625 23.5 -161.15625 L 127.359375 -161.15625 C 130.191406 -161.15625 132.242188 -160.519531 133.515625 -159.25 C 134.785156 -157.976562 135.421875 -155.925781 135.421875 -153.09375 L 135.421875 -126.90625 C 135.421875 -124.070312 134.785156 -122.019531 133.515625 -120.75 C 132.242188 -119.488281 130.191406 -118.859375 127.359375 -118.859375 L 65.578125 -118.859375 L 65.578125 -101.625 L 109.234375 -101.625 C 112.066406 -101.625 114.113281 -100.988281 115.375 -99.71875 C 116.644531 -98.445312 117.28125 -96.394531 117.28125 -93.5625 L 117.28125 -69.609375 C 117.28125 -66.773438 116.644531 -64.722656 115.375 -63.453125 C 114.113281 -62.179688 112.066406 -61.546875 109.234375 -61.546875 L 65.578125 -61.546875 L 65.578125 -42.296875 L 127.359375 -42.296875 C 130.191406 -42.296875 132.242188 -41.660156 133.515625 -40.390625 C 134.785156 -39.128906 135.421875 -37.082031 135.421875 -34.25 L 135.421875 -8.0625 C 135.421875 -5.226562 134.785156 -3.175781 133.515625 -1.90625 C 132.242188 -0.632812 130.191406 0 127.359375 0 Z M 127.359375 0 "/></g></g></g><g fill="#ff00ff" fill-opacity="1"><g transform="translate(437.058129, 222.178806)"><g><path d="M 58.1875 0 L 23.5 0 C 20.664062 0 18.613281 -0.632812 17.34375 -1.90625 C 16.070312 -3.175781 15.4375 -5.226562 15.4375 -8.0625 L 15.4375 -153.09375 C 15.4375 -155.925781 16.070312 -157.976562 17.34375 -159.25 C 18.613281 -160.519531 20.664062 -161.15625 23.5 -161.15625 L 92 -161.15625 C 112.289062 -161.15625 126.164062 -157.125 133.625 -149.0625 C 141.082031 -141.007812 144.8125 -130.492188 144.8125 -117.515625 L 144.8125 -88.859375 C 144.8125 -75.878906 141.082031 -65.359375 133.625 -57.296875 C 126.164062 -49.242188 112.289062 -45.21875 92 -45.21875 L 66.25 -45.21875 L 66.25 -8.0625 C 66.25 -5.226562 65.613281 -3.175781 64.34375 -1.90625 C 63.082031 -0.632812 61.03125 0 58.1875 0 Z M 65.8125 -119.296875 L 65.8125 -85.5 L 85.953125 -85.5 C 90.273438 -85.5 93.109375 -86.617188 94.453125 -88.859375 C 95.796875 -91.097656 96.46875 -93.632812 96.46875 -96.46875 L 96.46875 -108.328125 C 96.46875 -111.160156 95.796875 -113.695312 94.453125 -115.9375 C 93.109375 -118.175781 90.273438 -119.296875 85.953125 -119.296875 Z M 65.8125 -119.296875 "/></g></g></g><g fill="#00ffff" fill-opacity="1"><g transform="translate(10.011249, 211.301879)"><g><path d="M 90.203125 0 L 19.46875 0 C 16.632812 0 14.582031 -0.632812 13.3125 -1.90625 C 12.050781 -3.175781 11.421875 -5.226562 11.421875 -8.0625 L 11.421875 -34.25 C 11.421875 -37.082031 12.050781 -39.128906 13.3125 -40.390625 C 14.582031 -41.660156 16.632812 -42.296875 19.46875 -42.296875 L 79.6875 -42.296875 C 81.625 -42.296875 83.078125 -42.929688 84.046875 -44.203125 C 85.015625 -45.472656 85.5 -47.003906 85.5 -48.796875 C 85.5 -51.328125 85.015625 -53.191406 84.046875 -54.390625 C 83.078125 -55.585938 81.625 -56.257812 79.6875 -56.40625 L 46.109375 -61.109375 C 35.660156 -62.597656 27.265625 -66.023438 20.921875 -71.390625 C 14.585938 -76.765625 11.421875 -85.722656 11.421875 -98.265625 L 11.421875 -121.765625 C 11.421875 -134.441406 15.519531 -144.175781 23.71875 -150.96875 C 31.925781 -157.757812 43.269531 -161.15625 57.75 -161.15625 L 120.421875 -161.15625 C 123.253906 -161.15625 125.304688 -160.519531 126.578125 -159.25 C 127.847656 -157.976562 128.484375 -155.925781 128.484375 -153.09375 L 128.484375 -126.46875 C 128.484375 -123.625 127.847656 -121.566406 126.578125 -120.296875 C 125.304688 -119.035156 123.253906 -118.40625 120.421875 -118.40625 L 68.265625 -118.40625 C 66.328125 -118.40625 64.832031 -117.769531 63.78125 -116.5 C 62.738281 -115.226562 62.21875 -113.625 62.21875 -111.6875 C 62.21875 -109.75 62.738281 -108.109375 63.78125 -106.765625 C 64.832031 -105.421875 66.328125 -104.675781 68.265625 -104.53125 L 101.625 -100.046875 C 112.0625 -98.554688 120.488281 -95.125 126.90625 -89.75 C 133.320312 -84.382812 136.53125 -75.429688 136.53125 -62.890625 L 136.53125 -39.390625 C 136.53125 -26.710938 132.390625 -16.976562 124.109375 -10.1875 C 115.828125 -3.394531 104.523438 0 90.203125 0 Z M 90.203125 0 "/></g></g></g><g fill="#00ffff" fill-opacity="1"><g transform="translate(155.502126, 211.301879)"><g><path d="M 91.546875 0 L 55.28125 0 C 52.445312 0 50.394531 -0.632812 49.125 -1.90625 C 47.863281 -3.175781 47.234375 -5.226562 47.234375 -8.0625 L 47.234375 -117.953125 L 14.328125 -117.953125 C 11.492188 -117.953125 9.441406 -118.585938 8.171875 -119.859375 C 6.898438 -121.128906 6.265625 -123.179688 6.265625 -126.015625 L 6.265625 -153.09375 C 6.265625 -155.925781 6.898438 -157.976562 8.171875 -159.25 C 9.441406 -160.519531 11.492188 -161.15625 14.328125 -161.15625 L 132.5 -161.15625 C 135.34375 -161.15625 137.394531 -160.519531 138.65625 -159.25 C 139.925781 -157.976562 140.5625 -155.925781 140.5625 -153.09375 L 140.5625 -126.015625 C 140.5625 -123.179688 139.925781 -121.128906 138.65625 -119.859375 C 137.394531 -118.585938 135.34375 -117.953125 132.5 -117.953125 L 99.609375 -117.953125 L 99.609375 -8.0625 C 99.609375 -5.226562 98.972656 -3.175781 97.703125 -1.90625 C 96.429688 -0.632812 94.378906 0 91.546875 0 Z M 91.546875 0 "/></g></g></g><g fill="#00ffff" fill-opacity="1"><g transform="translate(302.336024, 211.301879)"><g><path d="M 127.359375 0 L 23.5 0 C 20.664062 0 18.613281 -0.632812 17.34375 -1.90625 C 16.070312 -3.175781 15.4375 -5.226562 15.4375 -8.0625 L 15.4375 -153.09375 C 15.4375 -155.925781 16.070312 -157.976562 17.34375 -159.25 C 18.613281 -160.519531 20.664062 -161.15625 23.5 -161.15625 L 127.359375 -161.15625 C 130.191406 -161.15625 132.242188 -160.519531 133.515625 -159.25 C 134.785156 -157.976562 135.421875 -155.925781 135.421875 -153.09375 L 135.421875 -126.90625 C 135.421875 -124.070312 134.785156 -122.019531 133.515625 -120.75 C 132.242188 -119.488281 130.191406 -118.859375 127.359375 -118.859375 L 65.578125 -118.859375 L 65.578125 -101.625 L 109.234375 -101.625 C 112.066406 -101.625 114.113281 -100.988281 115.375 -99.71875 C 116.644531 -98.445312 117.28125 -96.394531 117.28125 -93.5625 L 117.28125 -69.609375 C 117.28125 -66.773438 116.644531 -64.722656 115.375 -63.453125 C 114.113281 -62.179688 112.066406 -61.546875 109.234375 -61.546875 L 65.578125 -61.546875 L 65.578125 -42.296875 L 127.359375 -42.296875 C 130.191406 -42.296875 132.242188 -41.660156 133.515625 -40.390625 C 134.785156 -39.128906 135.421875 -37.082031 135.421875 -34.25 L 135.421875 -8.0625 C 135.421875 -5.226562 134.785156 -3.175781 133.515625 -1.90625 C 132.242188 -0.632812 130.191406 0 127.359375 0 Z M 127.359375 0 "/></g></g></g><g fill="#00ffff" fill-opacity="1"><g transform="translate(448.722205, 211.301879)"><g><path d="M 58.1875 0 L 23.5 0 C 20.664062 0 18.613281 -0.632812 17.34375 -1.90625 C 16.070312 -3.175781 15.4375 -5.226562 15.4375 -8.0625 L 15.4375 -153.09375 C 15.4375 -155.925781 16.070312 -157.976562 17.34375 -159.25 C 18.613281 -160.519531 20.664062 -161.15625 23.5 -161.15625 L 92 -161.15625 C 112.289062 -161.15625 126.164062 -157.125 133.625 -149.0625 C 141.082031 -141.007812 144.8125 -130.492188 144.8125 -117.515625 L 144.8125 -88.859375 C 144.8125 -75.878906 141.082031 -65.359375 133.625 -57.296875 C 126.164062 -49.242188 112.289062 -45.21875 92 -45.21875 L 66.25 -45.21875 L 66.25 -8.0625 C 66.25 -5.226562 65.613281 -3.175781 64.34375 -1.90625 C 63.082031 -0.632812 61.03125 0 58.1875 0 Z M 65.8125 -119.296875 L 65.8125 -85.5 L 85.953125 -85.5 C 90.273438 -85.5 93.109375 -86.617188 94.453125 -88.859375 C 95.796875 -91.097656 96.46875 -93.632812 96.46875 -96.46875 L 96.46875 -108.328125 C 96.46875 -111.160156 95.796875 -113.695312 94.453125 -115.9375 C 93.109375 -118.175781 90.273438 -119.296875 85.953125 -119.296875 Z M 65.8125 -119.296875 "/></g></g></g><g fill="#7843e6" fill-opacity="1"><g transform="translate(4.17921, 216.740342)"><g><path d="M 90.203125 0 L 19.46875 0 C 16.632812 0 14.582031 -0.632812 13.3125 -1.90625 C 12.050781 -3.175781 11.421875 -5.226562 11.421875 -8.0625 L 11.421875 -34.25 C 11.421875 -37.082031 12.050781 -39.128906 13.3125 -40.390625 C 14.582031 -41.660156 16.632812 -42.296875 19.46875 -42.296875 L 79.6875 -42.296875 C 81.625 -42.296875 83.078125 -42.929688 84.046875 -44.203125 C 85.015625 -45.472656 85.5 -47.003906 85.5 -48.796875 C 85.5 -51.328125 85.015625 -53.191406 84.046875 -54.390625 C 83.078125 -55.585938 81.625 -56.257812 79.6875 -56.40625 L 46.109375 -61.109375 C 35.660156 -62.597656 27.265625 -66.023438 20.921875 -71.390625 C 14.585938 -76.765625 11.421875 -85.722656 11.421875 -98.265625 L 11.421875 -121.765625 C 11.421875 -134.441406 15.519531 -144.175781 23.71875 -150.96875 C 31.925781 -157.757812 43.269531 -161.15625 57.75 -161.15625 L 120.421875 -161.15625 C 123.253906 -161.15625 125.304688 -160.519531 126.578125 -159.25 C 127.847656 -157.976562 128.484375 -155.925781 128.484375 -153.09375 L 128.484375 -126.46875 C 128.484375 -123.625 127.847656 -121.566406 126.578125 -120.296875 C 125.304688 -119.035156 123.253906 -118.40625 120.421875 -118.40625 L 68.265625 -118.40625 C 66.328125 -118.40625 64.832031 -117.769531 63.78125 -116.5 C 62.738281 -115.226562 62.21875 -113.625 62.21875 -111.6875 C 62.21875 -109.75 62.738281 -108.109375 63.78125 -106.765625 C 64.832031 -105.421875 66.328125 -104.675781 68.265625 -104.53125 L 101.625 -100.046875 C 112.0625 -98.554688 120.488281 -95.125 126.90625 -89.75 C 133.320312 -84.382812 136.53125 -75.429688 136.53125 -62.890625 L 136.53125 -39.390625 C 136.53125 -26.710938 132.390625 -16.976562 124.109375 -10.1875 C 115.828125 -3.394531 104.523438 0 90.203125 0 Z M 90.203125 0 "/></g></g></g><g fill="#7843e6" fill-opacity="1"><g transform="translate(149.670088, 216.740342)"><g><path d="M 91.546875 0 L 55.28125 0 C 52.445312 0 50.394531 -0.632812 49.125 -1.90625 C 47.863281 -3.175781 47.234375 -5.226562 47.234375 -8.0625 L 47.234375 -117.953125 L 14.328125 -117.953125 C 11.492188 -117.953125 9.441406 -118.585938 8.171875 -119.859375 C 6.898438 -121.128906 6.265625 -123.179688 6.265625 -126.015625 L 6.265625 -153.09375 C 6.265625 -155.925781 6.898438 -157.976562 8.171875 -159.25 C 9.441406 -160.519531 11.492188 -161.15625 14.328125 -161.15625 L 132.5 -161.15625 C 135.34375 -161.15625 137.394531 -160.519531 138.65625 -159.25 C 139.925781 -157.976562 140.5625 -155.925781 140.5625 -153.09375 L 140.5625 -126.015625 C 140.5625 -123.179688 139.925781 -121.128906 138.65625 -119.859375 C 137.394531 -118.585938 135.34375 -117.953125 132.5 -117.953125 L 99.609375 -117.953125 L 99.609375 -8.0625 C 99.609375 -5.226562 98.972656 -3.175781 97.703125 -1.90625 C 96.429688 -0.632812 94.378906 0 91.546875 0 Z M 91.546875 0 "/></g></g></g><g fill="#7843e6" fill-opacity="1"><g transform="translate(296.503985, 216.740342)"><g><path d="M 127.359375 0 L 23.5 0 C 20.664062 0 18.613281 -0.632812 17.34375 -1.90625 C 16.070312 -3.175781 15.4375 -5.226562 15.4375 -8.0625 L 15.4375 -153.09375 C 15.4375 -155.925781 16.070312 -157.976562 17.34375 -159.25 C 18.613281 -160.519531 20.664062 -161.15625 23.5 -161.15625 L 127.359375 -161.15625 C 130.191406 -161.15625 132.242188 -160.519531 133.515625 -159.25 C 134.785156 -157.976562 135.421875 -155.925781 135.421875 -153.09375 L 135.421875 -126.90625 C 135.421875 -124.070312 134.785156 -122.019531 133.515625 -120.75 C 132.242188 -119.488281 130.191406 -118.859375 127.359375 -118.859375 L 65.578125 -118.859375 L 65.578125 -101.625 L 109.234375 -101.625 C 112.066406 -101.625 114.113281 -100.988281 115.375 -99.71875 C 116.644531 -98.445312 117.28125 -96.394531 117.28125 -93.5625 L 117.28125 -69.609375 C 117.28125 -66.773438 116.644531 -64.722656 115.375 -63.453125 C 114.113281 -62.179688 112.066406 -61.546875 109.234375 -61.546875 L 65.578125 -61.546875 L 65.578125 -42.296875 L 127.359375 -42.296875 C 130.191406 -42.296875 132.242188 -41.660156 133.515625 -40.390625 C 134.785156 -39.128906 135.421875 -37.082031 135.421875 -34.25 L 135.421875 -8.0625 C 135.421875 -5.226562 134.785156 -3.175781 133.515625 -1.90625 C 132.242188 -0.632812 130.191406 0 127.359375 0 Z M 127.359375 0 "/></g></g></g><g fill="#7843e6" fill-opacity="1"><g transform="translate(442.890167, 216.740342)"><g><path d="M 58.1875 0 L 23.5 0 C 20.664062 0 18.613281 -0.632812 17.34375 -1.90625 C 16.070312 -3.175781 15.4375 -5.226562 15.4375 -8.0625 L 15.4375 -153.09375 C 15.4375 -155.925781 16.070312 -157.976562 17.34375 -159.25 C 18.613281 -160.519531 20.664062 -161.15625 23.5 -161.15625 L 92 -161.15625 C 112.289062 -161.15625 126.164062 -157.125 133.625 -149.0625 C 141.082031 -141.007812 144.8125 -130.492188 144.8125 -117.515625 L 144.8125 -88.859375 C 144.8125 -75.878906 141.082031 -65.359375 133.625 -57.296875 C 126.164062 -49.242188 112.289062 -45.21875 92 -45.21875 L 66.25 -45.21875 L 66.25 -8.0625 C 66.25 -5.226562 65.613281 -3.175781 64.34375 -1.90625 C 63.082031 -0.632812 61.03125 0 58.1875 0 Z M 65.8125 -119.296875 L 65.8125 -85.5 L 85.953125 -85.5 C 90.273438 -85.5 93.109375 -86.617188 94.453125 -88.859375 C 95.796875 -91.097656 96.46875 -93.632812 96.46875 -96.46875 L 96.46875 -108.328125 C 96.46875 -111.160156 95.796875 -113.695312 94.453125 -115.9375 C 93.109375 -118.175781 90.273438 -119.296875 85.953125 -119.296875 Z M 65.8125 -119.296875 "/></g></g></g><g fill="#ff00ff" fill-opacity="1"><g transform="translate(177.438392, 388.069326)"><g><path d="M 57.640625 -89.078125 L 49.4375 -62.53125 L 76.859375 -62.53125 L 68.640625 -89.078125 C 68.179688 -90.128906 67.6875 -90.882812 67.15625 -91.34375 C 66.632812 -91.8125 66.023438 -92.046875 65.328125 -92.046875 L 60.953125 -92.046875 C 60.253906 -92.046875 59.644531 -91.8125 59.125 -91.34375 C 58.601562 -90.882812 58.109375 -90.128906 57.640625 -89.078125 Z M 47.6875 -6.28125 C 47.6875 -4.070312 47.191406 -2.472656 46.203125 -1.484375 C 45.210938 -0.492188 43.609375 0 41.390625 0 L 15.71875 0 C 13.507812 0 11.910156 -0.492188 10.921875 -1.484375 C 9.929688 -2.472656 9.4375 -4.070312 9.4375 -6.28125 L 9.4375 -52.40625 C 9.4375 -55.894531 9.988281 -59.910156 11.09375 -64.453125 C 12.195312 -68.992188 13.914062 -74.289062 16.25 -80.34375 L 31.4375 -120 C 32.132812 -121.976562 33.210938 -123.429688 34.671875 -124.359375 C 36.128906 -125.296875 38.019531 -125.765625 40.34375 -125.765625 L 87.34375 -125.765625 C 89.550781 -125.765625 91.378906 -125.296875 92.828125 -124.359375 C 94.285156 -123.429688 95.363281 -121.976562 96.0625 -120 L 111.265625 -80.34375 C 113.597656 -74.289062 115.316406 -68.992188 116.421875 -64.453125 C 117.523438 -59.910156 118.078125 -55.894531 118.078125 -52.40625 L 118.078125 -6.28125 C 118.078125 -4.070312 117.582031 -2.472656 116.59375 -1.484375 C 115.601562 -0.492188 114.003906 0 111.796875 0 L 85.421875 0 C 83.085938 0 81.367188 -0.492188 80.265625 -1.484375 C 79.160156 -2.472656 78.609375 -4.070312 78.609375 -6.28125 L 78.609375 -30.75 L 47.6875 -30.75 Z M 47.6875 -6.28125 "/></g></g></g><g fill="#ff00ff" fill-opacity="1"><g transform="translate(304.946542, 388.069326)"><g><path d="M 15.546875 0 C 13.335938 0 11.734375 -0.492188 10.734375 -1.484375 C 9.742188 -2.472656 9.25 -4.070312 9.25 -6.28125 L 9.25 -27.078125 C 9.25 -29.285156 9.742188 -30.882812 10.734375 -31.875 C 11.734375 -32.863281 13.335938 -33.359375 15.546875 -33.359375 L 32.84375 -33.359375 L 32.84375 -92.046875 L 15.546875 -92.046875 C 13.335938 -92.046875 11.734375 -92.539062 10.734375 -93.53125 C 9.742188 -94.519531 9.25 -96.125 9.25 -98.34375 L 9.25 -119.46875 C 9.25 -121.6875 9.742188 -123.289062 10.734375 -124.28125 C 11.734375 -125.269531 13.335938 -125.765625 15.546875 -125.765625 L 89.953125 -125.765625 C 92.171875 -125.765625 93.773438 -125.269531 94.765625 -124.28125 C 95.753906 -123.289062 96.25 -121.6875 96.25 -119.46875 L 96.25 -98.34375 C 96.25 -96.125 95.753906 -94.519531 94.765625 -93.53125 C 93.773438 -92.539062 92.171875 -92.046875 89.953125 -92.046875 L 73.015625 -92.046875 L 73.015625 -33.359375 L 89.953125 -33.359375 C 92.171875 -33.359375 93.773438 -32.863281 94.765625 -31.875 C 95.753906 -30.882812 96.25 -29.285156 96.25 -27.078125 L 96.25 -6.28125 C 96.25 -4.070312 95.753906 -2.472656 94.765625 -1.484375 C 93.773438 -0.492188 92.171875 0 89.953125 0 Z M 15.546875 0 "/></g></g></g><g fill="#00ffff" fill-opacity="1"><g transform="translate(189.102468, 377.192399)"><g><path d="M 57.640625 -89.078125 L 49.4375 -62.53125 L 76.859375 -62.53125 L 68.640625 -89.078125 C 68.179688 -90.128906 67.6875 -90.882812 67.15625 -91.34375 C 66.632812 -91.8125 66.023438 -92.046875 65.328125 -92.046875 L 60.953125 -92.046875 C 60.253906 -92.046875 59.644531 -91.8125 59.125 -91.34375 C 58.601562 -90.882812 58.109375 -90.128906 57.640625 -89.078125 Z M 47.6875 -6.28125 C 47.6875 -4.070312 47.191406 -2.472656 46.203125 -1.484375 C 45.210938 -0.492188 43.609375 0 41.390625 0 L 15.71875 0 C 13.507812 0 11.910156 -0.492188 10.921875 -1.484375 C 9.929688 -2.472656 9.4375 -4.070312 9.4375 -6.28125 L 9.4375 -52.40625 C 9.4375 -55.894531 9.988281 -59.910156 11.09375 -64.453125 C 12.195312 -68.992188 13.914062 -74.289062 16.25 -80.34375 L 31.4375 -120 C 32.132812 -121.976562 33.210938 -123.429688 34.671875 -124.359375 C 36.128906 -125.296875 38.019531 -125.765625 40.34375 -125.765625 L 87.34375 -125.765625 C 89.550781 -125.765625 91.378906 -125.296875 92.828125 -124.359375 C 94.285156 -123.429688 95.363281 -121.976562 96.0625 -120 L 111.265625 -80.34375 C 113.597656 -74.289062 115.316406 -68.992188 116.421875 -64.453125 C 117.523438 -59.910156 118.078125 -55.894531 118.078125 -52.40625 L 118.078125 -6.28125 C 118.078125 -4.070312 117.582031 -2.472656 116.59375 -1.484375 C 115.601562 -0.492188 114.003906 0 111.796875 0 L 85.421875 0 C 83.085938 0 81.367188 -0.492188 80.265625 -1.484375 C 79.160156 -2.472656 78.609375 -4.070312 78.609375 -6.28125 L 78.609375 -30.75 L 47.6875 -30.75 Z M 47.6875 -6.28125 "/></g></g></g><g fill="#00ffff" fill-opacity="1"><g transform="translate(316.610618, 377.192399)"><g><path d="M 15.546875 0 C 13.335938 0 11.734375 -0.492188 10.734375 -1.484375 C 9.742188 -2.472656 9.25 -4.070312 9.25 -6.28125 L 9.25 -27.078125 C 9.25 -29.285156 9.742188 -30.882812 10.734375 -31.875 C 11.734375 -32.863281 13.335938 -33.359375 15.546875 -33.359375 L 32.84375 -33.359375 L 32.84375 -92.046875 L 15.546875 -92.046875 C 13.335938 -92.046875 11.734375 -92.539062 10.734375 -93.53125 C 9.742188 -94.519531 9.25 -96.125 9.25 -98.34375 L 9.25 -119.46875 C 9.25 -121.6875 9.742188 -123.289062 10.734375 -124.28125 C 11.734375 -125.269531 13.335938 -125.765625 15.546875 -125.765625 L 89.953125 -125.765625 C 92.171875 -125.765625 93.773438 -125.269531 94.765625 -124.28125 C 95.753906 -123.289062 96.25 -121.6875 96.25 -119.46875 L 96.25 -98.34375 C 96.25 -96.125 95.753906 -94.519531 94.765625 -93.53125 C 93.773438 -92.539062 92.171875 -92.046875 89.953125 -92.046875 L 73.015625 -92.046875 L 73.015625 -33.359375 L 89.953125 -33.359375 C 92.171875 -33.359375 93.773438 -32.863281 94.765625 -31.875 C 95.753906 -30.882812 96.25 -29.285156 96.25 -27.078125 L 96.25 -6.28125 C 96.25 -4.070312 95.753906 -2.472656 94.765625 -1.484375 C 93.773438 -0.492188 92.171875 0 89.953125 0 Z M 15.546875 0 "/></g></g></g><g fill="#7843e6" fill-opacity="1"><g transform="translate(183.27043, 382.630862)"><g><path d="M 57.640625 -89.078125 L 49.4375 -62.53125 L 76.859375 -62.53125 L 68.640625 -89.078125 C 68.179688 -90.128906 67.6875 -90.882812 67.15625 -91.34375 C 66.632812 -91.8125 66.023438 -92.046875 65.328125 -92.046875 L 60.953125 -92.046875 C 60.253906 -92.046875 59.644531 -91.8125 59.125 -91.34375 C 58.601562 -90.882812 58.109375 -90.128906 57.640625 -89.078125 Z M 47.6875 -6.28125 C 47.6875 -4.070312 47.191406 -2.472656 46.203125 -1.484375 C 45.210938 -0.492188 43.609375 0 41.390625 0 L 15.71875 0 C 13.507812 0 11.910156 -0.492188 10.921875 -1.484375 C 9.929688 -2.472656 9.4375 -4.070312 9.4375 -6.28125 L 9.4375 -52.40625 C 9.4375 -55.894531 9.988281 -59.910156 11.09375 -64.453125 C 12.195312 -68.992188 13.914062 -74.289062 16.25 -80.34375 L 31.4375 -120 C 32.132812 -121.976562 33.210938 -123.429688 34.671875 -124.359375 C 36.128906 -125.296875 38.019531 -125.765625 40.34375 -125.765625 L 87.34375 -125.765625 C 89.550781 -125.765625 91.378906 -125.296875 92.828125 -124.359375 C 94.285156 -123.429688 95.363281 -121.976562 96.0625 -120 L 111.265625 -80.34375 C 113.597656 -74.289062 115.316406 -68.992188 116.421875 -64.453125 C 117.523438 -59.910156 118.078125 -55.894531 118.078125 -52.40625 L 118.078125 -6.28125 C 118.078125 -4.070312 117.582031 -2.472656 116.59375 -1.484375 C 115.601562 -0.492188 114.003906 0 111.796875 0 L 85.421875 0 C 83.085938 0 81.367188 -0.492188 80.265625 -1.484375 C 79.160156 -2.472656 78.609375 -4.070312 78.609375 -6.28125 L 78.609375 -30.75 L 47.6875 -30.75 Z M 47.6875 -6.28125 "/></g></g></g><g fill="#7843e6" fill-opacity="1"><g transform="translate(310.77858, 382.630862)"><g><path d="M 15.546875 0 C 13.335938 0 11.734375 -0.492188 10.734375 -1.484375 C 9.742188 -2.472656 9.25 -4.070312 9.25 -6.28125 L 9.25 -27.078125 C 9.25 -29.285156 9.742188 -30.882812 10.734375 -31.875 C 11.734375 -32.863281 13.335938 -33.359375 15.546875 -33.359375 L 32.84375 -33.359375 L 32.84375 -92.046875 L 15.546875 -92.046875 C 13.335938 -92.046875 11.734375 -92.539062 10.734375 -93.53125 C 9.742188 -94.519531 9.25 -96.125 9.25 -98.34375 L 9.25 -119.46875 C 9.25 -121.6875 9.742188 -123.289062 10.734375 -124.28125 C 11.734375 -125.269531 13.335938 -125.765625 15.546875 -125.765625 L 89.953125 -125.765625 C 92.171875 -125.765625 93.773438 -125.269531 94.765625 -124.28125 C 95.753906 -123.289062 96.25 -121.6875 96.25 -119.46875 L 96.25 -98.34375 C 96.25 -96.125 95.753906 -94.519531 94.765625 -93.53125 C 93.773438 -92.539062 92.171875 -92.046875 89.953125 -92.046875 L 73.015625 -92.046875 L 73.015625 -33.359375 L 89.953125 -33.359375 C 92.171875 -33.359375 93.773438 -32.863281 94.765625 -31.875 C 95.753906 -30.882812 96.25 -29.285156 96.25 -27.078125 L 96.25 -6.28125 C 96.25 -4.070312 95.753906 -2.472656 94.765625 -1.484375 C 93.773438 -0.492188 92.171875 0 89.953125 0 Z M 15.546875 0 "/></g></g></g></svg>